<svg width="678" height="100" viewBox="0 0 678 100" fill="none" xmlns="http://www.w3.org/2000/svg">
<g clip-path="url(#clip0)">
<path d="M107.257 56.9076L101.239 38.4291L89.3292 1.77726C89.1921 1.36836 88.9298 1.01284 88.5794 0.760948C88.2291 0.509059 87.8083 0.373535 87.3766 0.373535C86.9449 0.373535 86.5242 0.509059 86.1738 0.760948C85.8234 1.01284 85.5611 1.36836 85.424 1.77726L73.5207 38.4068H33.9468L22.0371 1.77726C21.9 1.36836 21.6378 1.01284 21.2874 0.760948C20.937 0.509059 20.5162 0.373535 20.0845 0.373535C19.6529 0.373535 19.2321 0.509059 18.8817 0.760948C18.5313 1.01284 18.2691 1.36836 18.1319 1.77726L6.24452 38.4068L0.222832 56.9076C-0.044049 57.729 -0.0443358 58.6137 0.222011 59.4353C0.488359 60.2569 1.00773 60.9735 1.70598 61.4827L53.7306 99.2537L105.755 61.4827C106.456 60.9757 106.979 60.2602 107.249 59.4385C107.519 58.6169 107.522 57.731 107.257 56.9076" fill="#FC6D26"/>
<path d="M53.7437 99.2188L73.5211 38.4038H33.96L53.7437 99.2188Z" fill="#E24329"/>
<path d="M53.7302 99.222L33.9464 38.4038H6.25684L53.7302 99.222Z" fill="#FC6D26"/>
<path d="M6.23475 38.4263L0.213067 56.9048C-0.0538146 57.7262 -0.0541014 58.6109 0.212246 59.4325C0.478593 60.2541 0.997961 60.9707 1.69621 61.4799L53.7208 99.254L6.23475 38.4263Z" fill="#FCA326"/>
<path d="M6.24121 38.4258H33.9658L22.0338 1.7963C21.8967 1.3874 21.6344 1.03188 21.2841 0.779989C20.9337 0.528099 20.5129 0.392578 20.0812 0.392578C19.6495 0.392578 19.2288 0.528099 18.8784 0.779989C18.528 1.03188 18.2657 1.3874 18.1286 1.7963L6.24121 38.4258Z" fill="#E24329"/>
<path d="M53.7432 99.222L73.5205 38.4038H101.242L53.7432 99.222Z" fill="#FC6D26"/>
<path d="M101.232 38.4263L107.257 56.9048C107.524 57.7262 107.524 58.6109 107.258 59.4325C106.992 60.2541 106.472 60.9707 105.774 61.4799L53.7461 99.2191L101.232 38.4263V38.4263Z" fill="#FCA326"/>
<path d="M101.248 38.4258H73.5205L85.4302 1.7963C85.5673 1.3874 85.8296 1.03188 86.18 0.779989C86.5304 0.528099 86.9511 0.392578 87.3828 0.392578C87.8145 0.392578 88.2353 0.528099 88.5856 0.779989C88.936 1.03188 89.1983 1.3874 89.3354 1.7963L101.245 38.4258H101.248Z" fill="#E24329"/>
</g>
<g filter="url(#filter0_d)">
<path d="M145.168 50.6111C146.032 45.6191 147.856 41.1791 150.64 37.2911C153.424 33.3551 156.928 30.3071 161.152 28.1471C165.376 25.9391 169.984 24.8351 174.976 24.8351C179.152 24.8351 182.8 25.6031 185.92 27.1391C189.04 28.6751 191.464 30.8591 193.192 33.6911C194.92 36.5231 195.856 39.8591 196 43.6991H180.808C180.232 41.8271 179.224 40.3871 177.784 39.3791C176.344 38.3711 174.568 37.8671 172.456 37.8671C169.192 37.8671 166.384 39.0191 164.032 41.3231C161.68 43.6271 160.168 46.7231 159.496 50.6111C159.304 51.6191 159.208 52.6991 159.208 53.8511C159.208 56.8271 159.976 59.1791 161.512 60.9071C163.096 62.5871 165.256 63.4271 167.992 63.4271C170.104 63.4271 172.048 62.9231 173.824 61.9151C175.648 60.9071 177.16 59.4671 178.36 57.5951H193.624C191.32 63.4031 187.696 68.0111 182.752 71.4191C177.808 74.7791 172.168 76.4591 165.832 76.4591C161.464 76.4591 157.672 75.6191 154.456 73.9391C151.288 72.2591 148.864 69.8831 147.184 66.8111C145.504 63.7391 144.664 60.1871 144.664 56.1551C144.664 54.2831 144.832 52.4351 145.168 50.6111ZM244.587 67.8191H226.587L222.411 76.0991H207.579L235.011 25.3391H251.283L260.787 76.0991H245.883L244.587 67.8191ZM242.931 57.0911L240.411 40.6031L232.059 57.0911H242.931ZM326.586 25.3391L324.57 36.5711H311.106L304.122 76.0991H289.938L296.922 36.5711H283.53L285.546 25.3391H326.586ZM391.999 25.3391L368.023 59.9711L365.143 76.0991H351.031L353.839 59.9711L342.103 25.3391H358.231L363.703 44.9951L376.087 25.3391H391.999ZM422.396 76.6031C416.54 76.6031 411.812 75.4031 408.212 73.0031C404.66 70.5551 402.884 67.0031 402.884 62.3471C402.884 61.9631 402.932 61.2911 403.028 60.3311H417.932C417.788 61.9631 418.124 63.2351 418.94 64.1471C419.756 65.0591 421.004 65.5151 422.684 65.5151C424.076 65.5151 425.18 65.2031 425.996 64.5791C426.86 63.9551 427.292 63.0671 427.292 61.9151C427.292 60.5711 426.668 59.4671 425.42 58.6031C424.22 57.7391 422.252 56.7311 419.516 55.5791C416.78 54.4271 414.524 53.3471 412.748 52.3391C410.972 51.2831 409.436 49.8671 408.14 48.0911C406.844 46.2671 406.196 44.0111 406.196 41.3231C406.196 37.8191 407.06 34.8191 408.788 32.3231C410.516 29.7791 412.916 27.8591 415.988 26.5631C419.108 25.2191 422.66 24.5471 426.644 24.5471C430.244 24.5471 433.436 25.1231 436.22 26.2751C439.004 27.3791 441.164 28.9871 442.7 31.0991C444.284 33.2111 445.076 35.7071 445.076 38.5871C445.076 39.3551 445.052 39.9311 445.004 40.3151H429.812C429.86 40.0751 429.884 39.7391 429.884 39.3071C429.884 38.1551 429.524 37.2671 428.804 36.6431C428.084 35.9711 427.1 35.6351 425.852 35.6351C424.556 35.6351 423.5 35.9711 422.684 36.6431C421.916 37.2671 421.532 38.1551 421.532 39.3071C421.532 40.5551 422.132 41.6351 423.332 42.5471C424.58 43.4111 426.5 44.4431 429.092 45.6431C431.876 46.9391 434.156 48.1631 435.932 49.3151C437.756 50.4191 439.316 51.9071 440.612 53.7791C441.908 55.6511 442.556 57.9551 442.556 60.6911C442.556 63.7151 441.74 66.4511 440.108 68.8991C438.476 71.2991 436.148 73.1951 433.124 74.5871C430.1 75.9311 426.524 76.6031 422.396 76.6031ZM504.32 25.3391L502.376 36.5711H482.072L480.488 45.4991H495.392L493.52 56.2271H478.616L475.088 76.0991H460.904L469.904 25.3391H504.32ZM536.471 36.4991L535.031 44.9231H551.231L549.287 55.6511H533.087L531.431 64.8671H549.791L547.847 76.0991H515.303L524.303 25.3391H556.775L554.831 36.4991H536.471ZM589.956 36.4991L588.516 44.9231H604.716L602.772 55.6511H586.572L584.916 64.8671H603.276L601.332 76.0991H568.788L577.788 25.3391H610.26L608.316 36.4991H589.956ZM651.362 25.3391C656.018 25.3391 660.05 26.1791 663.458 27.8591C666.866 29.4911 669.458 31.8191 671.234 34.8431C673.01 37.8671 673.898 41.3951 673.898 45.4271C673.898 47.2511 673.73 49.0031 673.394 50.6831C672.53 55.5791 670.658 59.9471 667.778 63.7871C664.946 67.6271 661.322 70.6511 656.906 72.8591C652.538 75.0191 647.69 76.0991 642.362 76.0991H622.274L631.274 25.3391H651.362ZM643.514 63.7151C647.642 63.7151 651.074 62.5871 653.81 60.3311C656.546 58.0271 658.298 54.8111 659.066 50.6831C659.258 49.7231 659.354 48.6911 659.354 47.5871C659.354 44.3711 658.37 41.8991 656.402 40.1711C654.434 38.4431 651.674 37.5791 648.122 37.5791H643.298L638.618 63.7151H643.514Z" fill="black"/>
</g>
<defs>
<filter id="filter0_d" x="140.664" y="24.5474" width="537.234" height="60.056" filterUnits="userSpaceOnUse" color-interpolation-filters="sRGB">
<feFlood flood-opacity="0" result="BackgroundImageFix"/>
<feColorMatrix in="SourceAlpha" type="matrix" values="0 0 0 0 0 0 0 0 0 0 0 0 0 0 0 0 0 0 127 0"/>
<feOffset dy="4"/>
<feGaussianBlur stdDeviation="2"/>
<feColorMatrix type="matrix" values="0 0 0 0 0 0 0 0 0 0 0 0 0 0 0 0 0 0 0.25 0"/>
<feBlend mode="normal" in2="BackgroundImageFix" result="effect1_dropShadow"/>
<feBlend mode="normal" in="SourceGraphic" in2="effect1_dropShadow" result="shape"/>
</filter>
<clipPath id="clip0">
<rect width="324" height="99.1964" fill="white" transform="translate(0 0.0576172)"/>
</clipPath>
</defs>
</svg>
